HIERARCHY
ROOT Hips
{
	OFFSET 0.000000 0.000000 0.000000
	CHANNELS 6 Xposition Yposition Zposition Zrotation Yrotation Xrotation 
	JOINT LHipJoint
	{
		OFFSET 0.000000 0.000000 0.000000
		CHANNELS 3 Zrotation Yrotation Xrotation
		JOINT LeftUpLeg
		{
			OFFSET 1.363060 -1.794630 0.839290
			CHANNELS 3 Zrotation Yrotation Xrotation
			JOINT LeftLeg
			{
				OFFSET 2.448110 -6.726130 0.000000
				CHANNELS 3 Zrotation Yrotation Xrotation
				JOINT LeftFoot
				{
					OFFSET 2.562200 -7.039590 0.000000
					CHANNELS 3 Zrotation Yrotation Xrotation
					JOINT LeftToeBase
					{
						OFFSET 0.157640 -0.433110 2.322550
						CHANNELS 3 Zrotation Yrotation Xrotation
						End Site
						{
							OFFSET 0.000000 0.000000 0.000000
						}
					}
				}
			}
		}
	}
	JOINT RHipJoint
	{
		OFFSET 0.000000 0.000000 0.000000
		CHANNELS 3 Zrotation Yrotation Xrotation
		JOINT RightUpLeg
		{
			OFFSET -1.305520 -1.794630 0.839290
			CHANNELS 3 Zrotation Yrotation Xrotation
			JOINT RightLeg
			{
				OFFSET -2.542530 -6.985550 0.000000
				CHANNELS 3 Zrotation Yrotation Xrotation
				JOINT RightFoot
				{
					OFFSET -2.568260 -7.056230 0.000000
					CHANNELS 3 Zrotation Yrotation Xrotation
					JOINT RightToeBase
					{
						OFFSET -0.164730 -0.452590 2.363150
						CHANNELS 3 Zrotation Yrotation Xrotation
						End Site
						{
							OFFSET 0.000000 0.000000 0.000000
						}
					}
				}
			}
		}
	}
}
MOTION
Frames: 25
Frame Time: 0.008333
1.782140 17.443967 -0.612995 134.112623 -85.872811 -124.004333 -10.076703 -0.119899 1.713281 -6.192562 -3.821017 -36.102167 0.945865 1.813363 49.085457 2.564138 15.463072 18.562883 6.333200 -0.000000 -66.179000 9.776477 -1.572106 2.361271 8.709897 3.507489 -10.860342 2.132455 0.646037 4.034436 -1.013368 -4.496829 -3.381563 -0.804200 -0.000000 -48.372200
1.831210 17.444095 -0.649700 131.229947 -85.798525 -121.382898 -9.990775 -0.452874 1.630419 -6.179817 -4.252339 -38.507354 1.127124 1.939005 52.914054 2.678405 15.298548 21.943039 6.866500 0.000000 -64.557500 9.928598 -1.485609 2.115785 8.545505 2.920217 -10.909461 2.118142 0.564663 4.563951 -0.949956 -4.098346 -3.492275 -0.734800 0.000000 -48.707100
1.882345 17.442200 -0.682653 128.465378 -85.728346 -118.910431 -9.898052 -0.802261 1.527167 -6.185417 -4.655381 -40.952040 1.266186 2.073558 56.745110 2.788456 15.063014 24.965494 7.260400 -0.000000 -62.412001 10.064197 -1.393027 1.849654 8.394481 2.325954 -10.892350 2.105435 0.487072 5.065967 -0.891497 -3.727770 -3.608836 -0.670600 0.000001 -49.065600
1.934804 17.438537 -0.711849 125.809652 -85.665717 -116.573324 -9.801415 -1.156981 1.400327 -6.218228 -5.021215 -43.431911 1.378462 2.229109 60.580548 2.885341 14.791998 27.505376 7.520201 0.000000 -60.035600 10.184004 -1.296624 1.571012 8.255347 1.750336 -10.809592 2.092247 0.413138 5.538851 -0.842030 -3.407019 -3.732928 -0.613800 0.000000 -49.428900
1.987930 17.433391 -0.737527 123.259729 -85.611935 -114.365780 -9.704228 -1.509262 1.248630 -6.285520 -5.342519 -45.944805 1.483970 2.413178 64.420393 2.964526 14.526717 29.483188 7.667500 0.000000 -57.681000 10.289051 -1.198400 1.288119 8.126720 1.217135 -10.664608 2.076753 0.342673 5.982307 -0.804679 -3.153986 -3.864838 -0.566100 0.000000 -49.781200
2.040909 17.427211 -0.760083 120.813067 -85.563938 -112.279881 -9.607632 -1.855219 1.074937 -6.392929 -5.622966 -48.481221 1.600590 2.625586 68.241609 3.028595 14.327112 30.910597 7.752900 0.000000 -55.958100 10.381770 -1.099711 1.007819 8.003736 0.741916 -10.464617 2.057337 0.275295 6.398074 -0.780804 -2.977337 -4.002860 -0.528000 0.000000 -50.120800
2.092906 17.420439 -0.780043 118.489864 -85.517876 -110.330670 -9.513206 -2.192620 0.881990 -6.543825 -5.859392 -51.041473 1.744220 2.865157 72.034376 3.077210 14.205134 31.764980 7.789600 -0.000001 -54.602000 10.463526 -1.002460 0.737476 7.883721 0.337910 -10.218626 2.033072 0.210801 6.788604 -0.770915 -2.880983 -4.144952 -0.499300 0.000000 -50.438001
2.143198 17.413538 -0.798067 116.304005 -85.467148 -108.527614 -9.419286 -2.521612 0.675735 -6.739268 -6.059664 -53.619543 1.924091 3.125326 75.763601 3.113743 14.176606 32.094991 7.801101 -0.000000 -53.613400 10.537239 -0.907539 0.481540 7.760613 0.006110 -9.939218 2.003440 0.148459 7.160448 -0.773573 -2.857469 -4.288183 -0.478900 0.000000 -50.736100
2.191027 17.406933 -0.814845 114.272386 -85.404102 -106.880346 -9.322313 -2.843392 0.464511 -6.975385 -6.238108 -56.209005 2.142148 3.396900 79.380593 3.142381 14.247050 31.994220 7.807900 0.000000 -53.181200 10.605979 -0.815431 0.242410 7.627543 -0.261880 -9.642274 1.968636 0.087527 7.522196 -0.785854 -2.890329 -4.429885 -0.464600 -0.000000 -51.029000
2.235802 17.400924 -0.830995 112.415110 -85.322373 -105.402262 -9.218418 -3.158771 0.256363 -7.245838 -6.406958 -58.809431 2.396219 3.671629 82.840087 3.164264 14.390299 31.542555 7.804900 0.000000 -53.026000 10.672422 -0.726567 0.020899 7.478445 -0.480832 -9.344071 1.929530 0.027250 7.883378 -0.803873 -2.957406 -4.567433 -0.454000 0.000000 -51.329700
2.277276 17.395729 -0.847045 110.744609 -85.216478 -104.102181 -9.103199 -3.469032 0.059942 -7.538875 -6.581306 -61.421599 2.678532 3.941111 86.091617 3.180575 14.574946 30.851467 7.788300 0.000000 -53.019000 10.738480 -0.640766 -0.184392 7.308682 -0.670309 -9.060336 1.887466 -0.033063 8.253298 -0.823340 -3.033981 -4.699293 -0.444800 0.000000 -51.646700
2.315104 17.391401 -0.863240 109.279783 -85.084779 -102.991049 -8.973571 -3.775396 -0.116076 -7.837211 -6.774206 -64.053133 2.978729 4.198790 89.091934 3.191225 14.759794 30.030274 7.749100 -0.000001 -52.945300 10.803654 -0.558583 -0.374805 7.118074 -0.847068 -8.804884 1.844329 -0.093441 8.636951 -0.840491 -3.098740 -4.823322 -0.435100 0.000000 -51.987500
2.349692 17.387864 -0.880000 107.994800 -84.919419 -102.049921 -8.823545 -4.075783 -0.268178 -8.135484 -6.999022 -66.688907 3.281469 4.437759 91.791687 3.196859 14.915720 29.216756 7.693900 -0.000000 -52.960200 10.874200 -0.477095 -0.561839 6.892078 -1.057848 -8.582246 1.801826 -0.156046 9.050150 -0.847679 -3.107323 -4.940749 -0.420700 0.000000 -52.401400
2.380784 17.384921 -0.896881 106.934687 -84.730849 -101.312182 -8.656531 -4.373532 -0.388916 -8.399745 -7.257429 -69.353101 3.576401 4.656740 94.174303 3.195433 14.994174 28.489830 7.608800 0.000000 -52.701200 10.939626 -0.399538 -0.741237 6.651035 -1.285460 -8.396793 1.762216 -0.218293 9.476464 -0.846822 -3.072063 -5.047018 -0.403800 -0.000001 -52.839700
2.409042 17.382333 -0.914119 106.060141 -84.512758 -100.750102 -8.468701 -4.664127 -0.480406 -8.631184 -7.551746 -72.024623 3.849404 4.852535 96.213083 3.186512 14.974129 27.945583 7.501900 -0.000000 -52.395999 11.006341 -0.322389 -0.925709 6.380078 -1.572877 -8.242760 1.726757 -0.282257 9.928403 -0.831531 -2.954913 -5.146168 -0.380700 -0.000001 -53.343800
2.434794 17.379821 -0.931580 105.358607 -84.266943 -100.354204 -8.260751 -4.944748 -0.544491 -8.822646 -7.876727 -74.696258 4.090666 5.024855 97.901572 3.168740 14.832481 27.634072 7.370700 0.000000 -52.124700 11.073916 -0.244647 -1.119614 6.079145 -1.929190 -8.112973 1.696381 -0.347683 10.402100 -0.800771 -2.748720 -5.240210 -0.351200 0.000000 -53.904899
2.458376 17.377094 -0.948749 104.841375 -84.005216 -100.136355 -8.038932 -5.215783 -0.583510 -8.956487 -8.217652 -77.371271 4.295907 5.176250 99.252929 3.140094 14.545987 27.554714 7.201500 -0.000000 -51.777799 11.133472 -0.168447 -1.320112 5.767932 -2.327275 -7.993196 1.671768 -0.412419 10.875172 -0.759228 -2.480775 -5.324917 -0.318799 0.000000 -54.484500
2.480066 17.373987 -0.965581 104.474619 -83.728815 -100.066156 -7.804393 -5.472081 -0.603318 -9.041085 -8.563327 -80.032834 4.461179 5.307847 100.277279 3.099722 14.109433 27.694645 6.986900 0.000000 -51.524000 11.187295 -0.092346 -1.529935 5.443363 -2.769507 -7.872616 1.652516 -0.476431 11.344478 -0.707524 -2.152425 -5.404409 -0.283600 0.000000 -55.075300
2.500131 17.370391 -0.981891 104.236216 -83.444661 -100.122341 -7.560791 -5.710786 -0.608546 -9.079064 -8.900929 -82.671094 4.585626 5.421581 100.991837 3.047553 13.525845 28.019812 6.718300 -0.000000 -51.548300 11.233161 -0.016695 -1.746207 5.114191 -3.234193 -7.740671 1.637782 -0.538528 11.796827 -0.649939 -1.787567 -5.478958 -0.247799 -0.000000 -55.649700
2.518764 17.366267 -0.997682 104.096655 -83.157588 -100.276023 -7.311021 -5.928147 -0.604232 -9.081572 -9.218374 -85.276630 4.671840 5.519783 101.420338 2.983266 12.803646 28.460874 6.383900 0.000000 -51.782700 11.271211 0.058525 -1.965208 4.785204 -3.701564 -7.591034 1.626257 -0.597925 12.224553 -0.590319 -1.407586 -5.551373 -0.213199 -0.000000 -56.185700
2.535923 17.361658 -1.012874 104.034235 -82.873679 -100.500897 -7.057964 -6.120959 -0.593202 -9.057935 -9.507064 -87.841184 4.722034 5.603961 101.576552 2.907959 11.966068 28.952729 5.982899 -0.000000 -52.282600 11.300655 0.132506 -2.181184 4.464483 -4.145349 -7.420736 1.616493 -0.653629 12.619531 -0.533251 -1.039504 -5.623537 -0.181501 0.000000 -56.656500
2.551601 17.356706 -1.027413 104.031096 -82.600070 -100.773471 -6.804624 -6.287397 -0.575873 -9.011950 -9.762794 -90.357997 4.737341 5.674815 101.466974 2.824487 11.051751 29.451728 5.529100 -0.000000 -53.112700 11.319530 0.203897 -2.387341 4.164128 -4.534949 -7.230094 1.607023 -0.704665 12.973820 -0.483762 -0.714600 -5.695970 -0.154700 -0.000001 -57.037000
2.565721 17.351561 -1.041423 104.070416 -82.339080 -101.071089 -6.552525 -6.424288 -0.552545 -8.952820 -9.984109 -92.815356 4.718341 5.732322 101.089690 2.736036 10.110188 29.909859 5.045500 -0.000001 -54.220300 11.328995 0.272344 -2.578293 3.888607 -4.849640 -7.023722 1.596303 -0.750804 13.287599 -0.444972 -0.452759 -5.771876 -0.133300 0.000000 -57.310600
2.578257 17.346376 -1.055021 104.138801 -82.094108 -101.374807 -6.303358 -6.529294 -0.521851 -8.884133 -10.172134 -95.200033 4.663659 5.775426 100.429757 2.646567 9.198920 30.297052 4.564900 -0.000001 -55.354899 11.329617 0.337328 -2.749395 3.643938 -5.070944 -6.808268 1.583082 -0.792091 13.562963 -0.419701 -0.272751 -5.852847 -0.118000 0.000000 -57.465000
2.589328 17.341310 -1.068290 104.223266 -81.866069 -101.666843 -6.058295 -6.600441 -0.481109 -8.804804 -10.332233 -97.491237 4.568431 5.801336 99.457446 2.562133 8.387894 30.628742 4.134699 0.000000 -56.559601 11.322726 0.399067 -2.897790 3.433367 -5.186626 -6.591770 1.566287 -0.828886 13.804391 -0.409764 -0.186898 -5.940254 -0.108800 0.000000 -57.493801
